<?xml version="1.0" encoding="UTF-8" standalone="no"?>
<svg width="24px" height="24px" viewBox="0 0 24 24" version="1.1" xmlns="http://www.w3.org/2000/svg" xmlns:xlink="http://www.w3.org/1999/xlink" xmlns:sketch="http://www.bohemiancoding.com/sketch/ns">
    <!-- Generator: Sketch 3.1.1 (8761) - http://www.bohemiancoding.com/sketch -->
    <title>info button</title>
    <desc>Created with Sketch.</desc>
    <defs></defs>
    <g id="Home" stroke="none" stroke-width="1" fill="none" fill-rule="evenodd" sketch:type="MSPage">
        <g id="Home:-iPhone-6+" sketch:type="MSArtboardGroup" transform="translate(-16.000000, -702.000000)" fill="#067DFF">
            <g id="Bottom-Bar" sketch:type="MSLayerGroup" transform="translate(0.000000, 691.000000)">
                <g id="info-button" transform="translate(16.000000, 11.000000)" sketch:type="MSShapeGroup">
                    <path d="M11,17.9 L11,10 L13,10 L13,17.9 L14,17.9 L14,18 L13,18 L13,19 L11,19 L11,18 L10,18 L10,17.9 L11,17.9 L11,17.9 Z M12,24 C18.6274173,24 24,18.6274173 24,12 C24,5.37258267 18.6274173,0 12,0 C5.37258267,0 0,5.37258267 0,12 C0,18.6274173 5.37258267,24 12,24 Z M12,23 C18.0751325,23 23,18.0751325 23,12 C23,5.92486745 18.0751325,1 12,1 C5.92486745,1 1,5.92486745 1,12 C1,18.0751325 5.92486745,23 12,23 Z M10,10 L10,9.9 L11,9.9 L11,10 L10,10 Z M12,8 C12.8284272,8 13.5,7.32842717 13.5,6.5 C13.5,5.67157283 12.8284272,5 12,5 C11.1715728,5 10.5,5.67157283 10.5,6.5 C10.5,7.32842717 11.1715728,8 12,8 Z"></path>
                </g>
            </g>
        </g>
    </g>
</svg>