<?xml version="1.0" encoding="UTF-8" standalone="no"?>
<svg width="22px" height="22px" viewBox="0 0 22 22" version="1.1" xmlns="http://www.w3.org/2000/svg" xmlns:xlink="http://www.w3.org/1999/xlink" xmlns:sketch="http://www.bohemiancoding.com/sketch/ns">
    <!-- Generator: Sketch 3.1.1 (8761) - http://www.bohemiancoding.com/sketch -->
    <title>search</title>
    <desc>Created with Sketch.</desc>
    <defs></defs>
    <g id="Home" stroke="none" stroke-width="1" fill="none" fill-rule="evenodd" sketch:type="MSPage">
        <g id="Home:-iPhone-6+" sketch:type="MSArtboardGroup" transform="translate(-371.000000, -702.000000)" fill="#067DFF">
            <g id="Bottom-Bar" sketch:type="MSLayerGroup" transform="translate(0.000000, 691.000000)">
                <g id="search" transform="translate(368.000000, 8.000000)" sketch:type="MSShapeGroup">
                    <path d="M13.8237734,18.9523605 L13.8237734,27.9523605 L15.8237734,27.9523605 L15.8237734,18.9523605 L13.8237734,18.9523605 Z M14.9324691,18.3020343 C19.6268897,18.3020343 23.4324691,14.7203125 23.4324691,10.3020343 C23.4324691,5.88375608 19.6268897,2.3020343 14.9324691,2.3020343 C10.2380485,2.3020343 6.43246908,5.88375608 6.43246908,10.3020343 C6.43246908,14.7203125 10.2380485,18.3020343 14.9324691,18.3020343 Z M14.8020343,17.8466826 C18.9441701,17.8466826 22.3020343,14.4888185 22.3020343,10.3466826 C22.3020343,6.20454682 18.9441701,2.84668264 14.8020343,2.84668264 C10.6598985,2.84668264 7.3020343,6.20454682 7.3020343,10.3466826 C7.3020343,14.4888185 10.6598985,17.8466826 14.8020343,17.8466826 Z" transform="translate(14.910730, 14.910730) rotate(-45.000000) translate(-14.910730, -14.910730) "></path>
                </g>
            </g>
        </g>
    </g>
</svg>